<svg xmlns="http://www.w3.org/2000/svg" width="800" height="800" viewBox="0 0 32 32" xml:space="preserve"><path fill="#FFA28D" d="M15 15.5a.5.5 0 0 1 .5-.5h8a.5.5 0 0 1 0 1h-8a.5.5 0 0 1-.5-.5m7.89 1.5c-.51 4.8-2.939 8.08-7.01 8.83-3.94-.84-6.29-4.1-6.78-8.83zM19.934 3.22a.52.52 0 0 0-.699-.14.514.514 0 0 0-.141.7c1.17 1.75 1.121 3.21.301 4.17-.25.3-.471.49-.811.7-.459.27-.939.56-1.25 1.09-.51.88-.43 1.95.23 3.02.09.16.25.24.42.24l.26-.07c.24-.15.311-.46.17-.69-.33-.53-.631-1.3-.219-2 .189-.31.52-.51.898-.73a4.1 4.1 0 0 0 1.061-.91c1.36-1.59.94-3.64-.22-5.38m-5.03-1.01a.499.499 0 1 0-.81.58c.5.72 1.01 1.84.89 2.8-.13 1.09-.96 1.33-2.38 1.64-.43.1-.86.19-1.27.33-1.21.42-1.93 1.08-2.19 2.02-.31 1.07-.11 2.36.49 3.21.1.14.25.21.41.21a.499.499 0 0 0 .41-.79c-.42-.59-.57-1.58-.35-2.36.17-.61.67-1.04 1.56-1.35.35-.12.74-.2 1.15-.29 1.33-.29 2.93-.65 3.17-2.5.181-1.57-.779-3.08-1.08-3.5"/><path fill="#2D2220" d="M18.93 3.22a.52.52 0 0 0-.7-.14c-.23.16-.29.47-.14.7 1.17 1.75 1.12 3.21.3 4.17-.25.3-.47.49-.81.7-.46.27-.94.56-1.25 1.09-.51.88-.43 1.95.23 3.02.09.16.25.24.42.24l.26-.07c.24-.15.31-.46.17-.69-.33-.53-.63-1.3-.22-2 .189-.31.52-.51.899-.73.38-.23.7-.49 1.061-.91 1.36-1.59.94-3.64-.22-5.38M13.9 2.21a.499.499 0 1 0-.81.58c.5.72 1.01 1.84.89 2.8-.13 1.09-.96 1.33-2.38 1.64-.43.1-.86.19-1.27.33-1.21.42-1.93 1.08-2.19 2.02-.31 1.07-.11 2.36.49 3.21.1.14.25.21.41.21a.499.499 0 0 0 .41-.79c-.42-.59-.57-1.58-.35-2.36.17-.61.67-1.04 1.56-1.35.35-.12.74-.2 1.15-.29 1.33-.29 2.93-.65 3.17-2.5.18-1.57-.78-3.08-1.08-3.5m10.07 13.8c.01-.33.03-.66.03-1.01 0-.55-.45-1-1-1H5c-.55 0-1 .45-1 1 0 5.59 2.08 9.33 5.47 11H9c-.28 0-.5.22-.5.5s.22.5.5.5h10c.28 0 .5-.22.5-.5s-.22-.5-.5-.5h-.47c.56-.28 1.09-.61 1.58-1 6.83-.04 7.949-3.72 7.949-5.5.001-2.42-1.569-3.43-4.089-3.49M14 26c-5.8 0-9-4.37-9-11h18c0 1.45-.15 2.79-.46 4H16.5c-.28 0-.5.22-.5.5s.22.5.5.5h5.75c-.24.73-.55 1.4-.91 2H17.5c-.28 0-.5.22-.5.5s.22.5.5.5h3.16c-1.52 1.91-3.77 3-6.66 3m7.21-2.05c1.46-1.67 2.39-4 2.68-6.95 2.721.05 3.051 1.23 3.051 2.5-.001.78-.251 3.98-5.731 4.45"/><path fill="#2D2220" d="M5 16h18v1H5z"/></svg>